<?xml version="1.0" standalone="no"?>
<!DOCTYPE svg PUBLIC "-//W3C//DTD SVG 20010904//EN"
 "http://www.w3.org/TR/2001/REC-SVG-20010904/DTD/svg10.dtd">
<svg version="1.0" xmlns="http://www.w3.org/2000/svg"
 width="140.000000pt" height="140.000000pt" viewBox="0 0 140.000000 140.000000"
 preserveAspectRatio="xMidYMid meet">
<metadata>
Created by potrace 1.16, written by Peter Selinger 2001-2019
</metadata>
<g transform="translate(0.000000,140.000000) scale(0.100000,-0.100000)"
fill="#000000" stroke="none">
<path d="M403 1210 c26 -95 15 -205 -29 -291 -46 -92 -153 -176 -251 -198
l-38 -8 48 -13 c59 -15 152 -75 191 -121 89 -104 118 -265 70 -384 -4 -12 16
1 49 32 151 137 364 134 521 -7 l39 -35 -9 35 c-5 19 -9 73 -8 120 0 70 5 95
26 142 48 105 147 188 258 218 l45 12 -45 12 c-184 49 -301 211 -287 400 2 39
8 80 13 91 5 13 -8 6 -42 -22 -155 -131 -367 -129 -516 5 -39 35 -41 35 -35
12z"/>
</g>
</svg>
