<?xml version="1.0" standalone="no"?>
<!DOCTYPE svg PUBLIC "-//W3C//DTD SVG 20010904//EN"
 "http://www.w3.org/TR/2001/REC-SVG-20010904/DTD/svg10.dtd">
<svg version="1.0" xmlns="http://www.w3.org/2000/svg"
 width="140.000000pt" height="140.000000pt" viewBox="0 0 140.000000 140.000000"
 preserveAspectRatio="xMidYMid meet">

<g transform="translate(0.000000,140.000000) scale(0.100000,-0.100000)"
fill="#000000" stroke="none">
<path d="M100 1294 c0 -2 16 -25 35 -50 51 -67 120 -215 146 -314 33 -123 33
-340 1 -460 -26 -98 -87 -232 -138 -303 -20 -27 -34 -51 -32 -53 2 -2 28 13
57 32 78 53 205 111 296 136 117 31 345 31 465 -1 99 -26 247 -95 314 -146 25
-19 48 -35 50 -35 2 0 -20 35 -48 78 -208 311 -208 734 -1 1043 20 28 34 54
32 56 -3 2 -40 -19 -84 -47 -92 -59 -235 -113 -346 -130 -105 -17 -289 -8
-392 20 -99 27 -200 73 -287 133 -38 25 -68 43 -68 41z"/>
</g>
</svg>
