<?xml version="1.0" standalone="no"?>
<!DOCTYPE svg PUBLIC "-//W3C//DTD SVG 20010904//EN"
 "http://www.w3.org/TR/2001/REC-SVG-20010904/DTD/svg10.dtd">
<svg version="1.0" xmlns="http://www.w3.org/2000/svg"
 width="140.000000pt" height="140.000000pt" viewBox="0 0 140.000000 140.000000"
 preserveAspectRatio="xMidYMid meet">

<g transform="translate(0.000000,140.000000) scale(0.100000,-0.100000)"
fill="#000000" stroke="none">
<path d="M687 1100 c-55 -347 -226 -636 -517 -873 -40 -33 -35 -32 93 13 144
51 271 72 442 72 172 0 289 -20 451 -76 55 -19 100 -33 102 -32 1 2 -22 22
-52 45 -72 56 -190 180 -248 261 -135 190 -228 428 -247 635 l-6 70 -18 -115z"/>
</g>
</svg>
